<svg viewBox="0 0 831 400" xmlns="http://www.w3.org/2000/svg"><g><g><g><g><g><line x1="60" y1="377" x2="55" y2="377" style="visibility: inherit;" fill="rgb(0, 0, 0)" stroke="rgb(204, 204, 204)" stroke-width="1px"></line><line x1="60" y1="348.00000000000296" x2="55" y2="348.00000000000296" style="visibility: inherit;" fill="rgb(0, 0, 0)" stroke="rgb(204, 204, 204)" stroke-width="1px"></line><line x1="60" y1="318.9999999999995" x2="55" y2="318.9999999999995" style="visibility: inherit;" fill="rgb(0, 0, 0)" stroke="rgb(204, 204, 204)" stroke-width="1px"></line><line x1="60" y1="290.0000000000025" x2="55" y2="290.0000000000025" style="visibility: inherit;" fill="rgb(0, 0, 0)" stroke="rgb(204, 204, 204)" stroke-width="1px"></line><line x1="60" y1="260.999999999999" x2="55" y2="260.999999999999" style="visibility: inherit;" fill="rgb(0, 0, 0)" stroke="rgb(204, 204, 204)" stroke-width="1px"></line><line x1="60" y1="232.000000000002" x2="55" y2="232.000000000002" style="visibility: inherit;" fill="rgb(0, 0, 0)" stroke="rgb(204, 204, 204)" stroke-width="1px"></line><line x1="60" y1="202.99999999999852" x2="55" y2="202.99999999999852" style="visibility: inherit;" fill="rgb(0, 0, 0)" stroke="rgb(204, 204, 204)" stroke-width="1px"></line><line x1="60" y1="174.00000000000148" x2="55" y2="174.00000000000148" style="visibility: inherit;" fill="rgb(0, 0, 0)" stroke="rgb(204, 204, 204)" stroke-width="1px"></line><line x1="60" y1="144.999999999998" x2="55" y2="144.999999999998" style="visibility: inherit;" fill="rgb(0, 0, 0)" stroke="rgb(204, 204, 204)" stroke-width="1px"></line><line x1="60" y1="116.00000000000101" x2="55" y2="116.00000000000101" style="visibility: inherit;" fill="rgb(0, 0, 0)" stroke="rgb(204, 204, 204)" stroke-width="1px"></line><line x1="60" y1="86.99999999999751" x2="55" y2="86.99999999999751" style="visibility: inherit;" fill="rgb(0, 0, 0)" stroke="rgb(204, 204, 204)" stroke-width="1px"></line><line x1="60" y1="58.000000000000504" x2="55" y2="58.000000000000504" style="visibility: inherit;" fill="rgb(0, 0, 0)" stroke="rgb(204, 204, 204)" stroke-width="1px"></line><line x1="60" y1="28.99999999999701" x2="55" y2="28.99999999999701" style="visibility: inherit;" fill="rgb(0, 0, 0)" stroke="rgb(204, 204, 204)" stroke-width="1px"></line><line x1="60" y1="0" x2="55" y2="0" style="visibility: inherit;" fill="rgb(0, 0, 0)" stroke="rgb(204, 204, 204)" stroke-width="1px"></line></g><g transform="translate(50, 0)"><text x="0" y="377" dx="0em" dy="0.3em" style="text-anchor: end; visibility: hidden; font-family: Roboto, sans-serif; font-size: 12px; font-weight: 200;" fill="rgb(33, 33, 33)" stroke="none" stroke-width="1px">0.968</text><text x="0" y="348.00000000000296" dx="0em" dy="0.3em" style="text-anchor: end; visibility: inherit; font-family: Roboto, sans-serif; font-size: 12px; font-weight: 200;" fill="rgb(33, 33, 33)" stroke="none" stroke-width="1px">0.968</text><text x="0" y="318.9999999999995" dx="0em" dy="0.3em" style="text-anchor: end; visibility: inherit; font-family: Roboto, sans-serif; font-size: 12px; font-weight: 200;" fill="rgb(33, 33, 33)" stroke="none" stroke-width="1px">0.969</text><text x="0" y="290.0000000000025" dx="0em" dy="0.3em" style="text-anchor: end; visibility: inherit; font-family: Roboto, sans-serif; font-size: 12px; font-weight: 200;" fill="rgb(33, 33, 33)" stroke="none" stroke-width="1px">0.969</text><text x="0" y="260.999999999999" dx="0em" dy="0.3em" style="text-anchor: end; visibility: inherit; font-family: Roboto, sans-serif; font-size: 12px; font-weight: 200;" fill="rgb(33, 33, 33)" stroke="none" stroke-width="1px">0.97</text><text x="0" y="232.000000000002" dx="0em" dy="0.3em" style="text-anchor: end; visibility: inherit; font-family: Roboto, sans-serif; font-size: 12px; font-weight: 200;" fill="rgb(33, 33, 33)" stroke="none" stroke-width="1px">0.97</text><text x="0" y="202.99999999999852" dx="0em" dy="0.3em" style="text-anchor: end; visibility: inherit; font-family: Roboto, sans-serif; font-size: 12px; font-weight: 200;" fill="rgb(33, 33, 33)" stroke="none" stroke-width="1px">0.971</text><text x="0" y="174.00000000000148" dx="0em" dy="0.3em" style="text-anchor: end; visibility: inherit; font-family: Roboto, sans-serif; font-size: 12px; font-weight: 200;" fill="rgb(33, 33, 33)" stroke="none" stroke-width="1px">0.971</text><text x="0" y="144.999999999998" dx="0em" dy="0.3em" style="text-anchor: end; visibility: inherit; font-family: Roboto, sans-serif; font-size: 12px; font-weight: 200;" fill="rgb(33, 33, 33)" stroke="none" stroke-width="1px">0.972</text><text x="0" y="116.00000000000101" dx="0em" dy="0.3em" style="text-anchor: end; visibility: inherit; font-family: Roboto, sans-serif; font-size: 12px; font-weight: 200;" fill="rgb(33, 33, 33)" stroke="none" stroke-width="1px">0.972</text><text x="0" y="86.99999999999751" dx="0em" dy="0.3em" style="text-anchor: end; visibility: inherit; font-family: Roboto, sans-serif; font-size: 12px; font-weight: 200;" fill="rgb(33, 33, 33)" stroke="none" stroke-width="1px">0.973</text><text x="0" y="58.000000000000504" dx="0em" dy="0.3em" style="text-anchor: end; visibility: inherit; font-family: Roboto, sans-serif; font-size: 12px; font-weight: 200;" fill="rgb(33, 33, 33)" stroke="none" stroke-width="1px">0.973</text><text x="0" y="28.99999999999701" dx="0em" dy="0.3em" style="text-anchor: end; visibility: inherit; font-family: Roboto, sans-serif; font-size: 12px; font-weight: 200;" fill="rgb(33, 33, 33)" stroke="none" stroke-width="1px">0.974</text><text x="0" y="0" dx="0em" dy="0.3em" style="text-anchor: end; visibility: hidden; font-family: Roboto, sans-serif; font-size: 12px; font-weight: 200;" fill="rgb(33, 33, 33)" stroke="none" stroke-width="1px">0.974</text></g><line x1="60" y1="0" x2="60" y2="377" fill="rgb(0, 0, 0)" stroke="rgb(204, 204, 204)" stroke-width="1px"></line></g></g><g transform="translate(60, 0)" clip-path="url(#clip_0)"><clipPath id="clip_0"><rect width="501" height="377"></rect></clipPath><g><g><g><line x1="0" y1="0" x2="0" y2="377" fill="rgb(0, 0, 0)" stroke="rgb(66, 66, 66)" stroke-width="1px" opacity="0.25"></line><line x1="62.625" y1="0" x2="62.625" y2="377" fill="rgb(0, 0, 0)" stroke="rgb(66, 66, 66)" stroke-width="1px" opacity="0.25"></line><line x1="125.25" y1="0" x2="125.25" y2="377" fill="rgb(0, 0, 0)" stroke="rgb(66, 66, 66)" stroke-width="1px" opacity="0.25"></line><line x1="187.875" y1="0" x2="187.875" y2="377" fill="rgb(0, 0, 0)" stroke="rgb(66, 66, 66)" stroke-width="1px" opacity="0.25"></line><line x1="250.5" y1="0" x2="250.5" y2="377" fill="rgb(0, 0, 0)" stroke="rgb(66, 66, 66)" stroke-width="1px" opacity="0.25"></line><line x1="313.125" y1="0" x2="313.125" y2="377" fill="rgb(0, 0, 0)" stroke="rgb(66, 66, 66)" stroke-width="1px" opacity="0.25"></line><line x1="375.75" y1="0" x2="375.75" y2="377" fill="rgb(0, 0, 0)" stroke="rgb(66, 66, 66)" stroke-width="1px" opacity="0.25"></line><line x1="438.375" y1="0" x2="438.375" y2="377" fill="rgb(0, 0, 0)" stroke="rgb(66, 66, 66)" stroke-width="1px" opacity="0.25"></line><line x1="501" y1="0" x2="501" y2="377" fill="rgb(0, 0, 0)" stroke="rgb(66, 66, 66)" stroke-width="1px" opacity="0.25"></line></g><g><line x1="0" y1="377" x2="501" y2="377" fill="rgb(0, 0, 0)" stroke="rgb(66, 66, 66)" stroke-width="1px" opacity="0.25"></line><line x1="0" y1="348.00000000000296" x2="501" y2="348.00000000000296" fill="rgb(0, 0, 0)" stroke="rgb(66, 66, 66)" stroke-width="1px" opacity="0.25"></line><line x1="0" y1="318.9999999999995" x2="501" y2="318.9999999999995" fill="rgb(0, 0, 0)" stroke="rgb(66, 66, 66)" stroke-width="1px" opacity="0.25"></line><line x1="0" y1="290.0000000000025" x2="501" y2="290.0000000000025" fill="rgb(0, 0, 0)" stroke="rgb(66, 66, 66)" stroke-width="1px" opacity="0.25"></line><line x1="0" y1="260.999999999999" x2="501" y2="260.999999999999" fill="rgb(0, 0, 0)" stroke="rgb(66, 66, 66)" stroke-width="1px" opacity="0.25"></line><line x1="0" y1="232.000000000002" x2="501" y2="232.000000000002" fill="rgb(0, 0, 0)" stroke="rgb(66, 66, 66)" stroke-width="1px" opacity="0.25"></line><line x1="0" y1="202.99999999999852" x2="501" y2="202.99999999999852" fill="rgb(0, 0, 0)" stroke="rgb(66, 66, 66)" stroke-width="1px" opacity="0.25"></line><line x1="0" y1="174.00000000000148" x2="501" y2="174.00000000000148" fill="rgb(0, 0, 0)" stroke="rgb(66, 66, 66)" stroke-width="1px" opacity="0.25"></line><line x1="0" y1="144.999999999998" x2="501" y2="144.999999999998" fill="rgb(0, 0, 0)" stroke="rgb(66, 66, 66)" stroke-width="1px" opacity="0.25"></line><line x1="0" y1="116.00000000000101" x2="501" y2="116.00000000000101" fill="rgb(0, 0, 0)" stroke="rgb(66, 66, 66)" stroke-width="1px" opacity="0.25"></line><line x1="0" y1="86.99999999999751" x2="501" y2="86.99999999999751" fill="rgb(0, 0, 0)" stroke="rgb(66, 66, 66)" stroke-width="1px" opacity="0.25"></line><line x1="0" y1="58.000000000000504" x2="501" y2="58.000000000000504" fill="rgb(0, 0, 0)" stroke="rgb(66, 66, 66)" stroke-width="1px" opacity="0.25"></line><line x1="0" y1="28.99999999999701" x2="501" y2="28.99999999999701" fill="rgb(0, 0, 0)" stroke="rgb(66, 66, 66)" stroke-width="1px" opacity="0.25"></line><line x1="0" y1="0" x2="501" y2="0" fill="rgb(0, 0, 0)" stroke="rgb(66, 66, 66)" stroke-width="1px" opacity="0.25"></line></g></g></g><g><g><line x1="0" y1="56492.00000000043" x2="501" y2="56492.00000000043" fill="rgb(0, 0, 0)" stroke="rgb(153, 153, 153)" stroke-width="1.5px"></line></g></g><g><g><line x1="62.625" y1="0" x2="62.625" y2="377" fill="rgb(0, 0, 0)" stroke="rgb(153, 153, 153)" stroke-width="1.5px"></line></g></g><g><g><g><g><g><path stroke="rgb(0, 119, 187)" stroke-width="2px" d="M62.625,328.96222305297323L75.14999999999999,344.6486754417368L87.675,286.4243951719676L100.2,263.16478716626636L112.72500000000001,245.02285075932824L125.25,243.55276607493624L137.775,220.2991336556114L150.29999999999998,227.8997903548265L162.82500000000002,204.53872238214757L175.35,201.13440465063601L187.875,187.69402749383312L200.4,167.5668120744344L212.92499999999998,174.79684920569264L225.45000000000002,172.6147483084337L237.975,165.08923142216318L250.5,143.4533311241155L263.02500000000003,209.29915979864916L275.55,181.94407380746253L288.075,161.6855390956008L300.59999999999997,179.67104132329052L313.125,209.05998031311708L325.65000000000003,158.72328646315327L338.175,121.06127950640682L350.7,144.77123826599293L363.22499999999997,142.21509622707782L375.75,181.59797600572517L388.27500000000003,137.47041417587107L400.8,119.61722518235821L413.325,98.44422295322326L425.84999999999997,96.3066158494131L438.375,88.87461603055583L450.90000000000003,113.68711709783616L463.425,129.6725817672689L475.95,127.59832477303154L488.47499999999997,115.04638783651708" style="fill: none;" fill="none"></path></g><g><path stroke="rgb(255, 112, 67)" stroke-width="2px" d="M75.14999999999999,400.97081792354754L87.675,369.80008997235853L100.2,351.6379927852596L112.72500000000001,347.72562914271464L125.25,322.9807155269258L137.775,302.0907997585357L150.29999999999998,324.17473569721074L162.82500000000002,292.70223448853926L175.35,277.6207044018414L187.875,263.48832991017446L200.4,242.97385738882278L212.92499999999998,244.10260765972401L225.45000000000002,243.96102143777532L237.975,208.18240191103922L250.5,178.98136220896512L263.02500000000003,165.1435730571355L275.55,176.99501157414767L288.075,194.35386535181345L300.59999999999997,190.25104402232787L313.125,181.5762658118701L325.65000000000003,171.0779863429894L338.175,140.3775357594747L350.7,122.24366728099196L363.22499999999997,113.10853477923462L375.75,105.82840991687594L388.27500000000003,100.67627880562937L400.8,93.20281965502747L413.325,72.3280836377128L425.84999999999997,46.32205614906529L438.375,23.35626737105963L450.90000000000003,0.7101037588601814L463.425,-4.454788973987041" style="fill: none;" fill="none"></path></g></g></g></g><g opacity="0.2"><g><g><g><path stroke="rgb(0, 119, 187)" stroke-width="2px" d="M62.625,328.9622230529797L75.14999999999999,354.06054687500136L87.675,230.5290861129765L100.2,235.81148815155078L112.72500000000001,221.33673858642615L125.25,241.51910972595263L137.775,187.04606723785412L150.29999999999998,238.98162078857473L162.82500000000002,170.08568477630612L175.35,196.0793895721437L187.875,167.65536499023435L200.4,137.48552036285372L212.92499999999998,185.6182975769044L225.45000000000002,169.34587192535395L237.975,153.80980205535872L250.5,111.01473999023389L263.02500000000003,308.040039062501L275.55,140.9183902740476L288.075,131.30082321166958L300.59999999999997,206.64765071868925L313.125,253.14177703857484L325.65000000000003,83.2199020385735L338.175,64.5690126419059L350.7,180.3358955383301L363.22499999999997,138.38090133666964L375.75,240.67212772369433L388.27500000000003,71.27918434142985L400.8,92.83746910095151L413.325,66.68473911285315L425.84999999999997,93.10020637512145L438.375,77.72661876678391L450.90000000000003,150.90586376190168L463.425,153.65077686309797L475.95,124.48693943023642L488.47499999999997,96.21848297119081" style="fill: none;" fill="none"></path></g><g><path stroke="rgb(255, 112, 67)" stroke-width="2px" d="M75.14999999999999,391.64580535888837L87.675,339.87619113922244L100.2,330.2793664932263L112.72500000000001,342.6176471710218L125.25,288.74959182739343L137.775,272.21788597107013L150.29999999999998,356.37332630157607L162.82500000000002,246.28640842437795L175.35,255.22638988494933L187.875,242.41794776916555L200.4,212.31378746032746L212.92499999999998,245.79204750061086L225.45000000000002,243.74891948700005L237.975,154.55652904510484L250.5,135.20039749145477L263.02500000000003,144.39274501800514L275.55,194.7691602706911L288.075,220.3895015716556L300.59999999999997,184.09718704223638L313.125,168.56457424163813L325.65000000000003,155.3309125900267L338.175,94.32746601104677L350.7,95.0430793762201L363.22499999999997,99.4059009551996L375.75,94.90825366973817L388.27500000000003,92.94809532165466L400.8,81.99264240264822L413.325,41.01599884033102L425.84999999999997,7.313029289244302L438.375,-11.092408180238266" style="fill: none;" fill="none"></path></g></g></g></g></g></g><g transform="translate(60, 377)" clip-path="url(#clip_1)"><clipPath id="clip_1"><rect width="501" height="23"></rect></clipPath><g><g><line x1="0" y1="0" x2="0" y2="5" style="visibility: inherit;" fill="rgb(0, 0, 0)" stroke="rgb(204, 204, 204)" stroke-width="1px"></line><line x1="62.625" y1="0" x2="62.625" y2="5" style="visibility: inherit;" fill="rgb(0, 0, 0)" stroke="rgb(204, 204, 204)" stroke-width="1px"></line><line x1="125.25" y1="0" x2="125.25" y2="5" style="visibility: inherit;" fill="rgb(0, 0, 0)" stroke="rgb(204, 204, 204)" stroke-width="1px"></line><line x1="187.875" y1="0" x2="187.875" y2="5" style="visibility: inherit;" fill="rgb(0, 0, 0)" stroke="rgb(204, 204, 204)" stroke-width="1px"></line><line x1="250.5" y1="0" x2="250.5" y2="5" style="visibility: inherit;" fill="rgb(0, 0, 0)" stroke="rgb(204, 204, 204)" stroke-width="1px"></line><line x1="313.125" y1="0" x2="313.125" y2="5" style="visibility: inherit;" fill="rgb(0, 0, 0)" stroke="rgb(204, 204, 204)" stroke-width="1px"></line><line x1="375.75" y1="0" x2="375.75" y2="5" style="visibility: inherit;" fill="rgb(0, 0, 0)" stroke="rgb(204, 204, 204)" stroke-width="1px"></line><line x1="438.375" y1="0" x2="438.375" y2="5" style="visibility: inherit;" fill="rgb(0, 0, 0)" stroke="rgb(204, 204, 204)" stroke-width="1px"></line><line x1="501" y1="0" x2="501" y2="5" style="visibility: inherit;" fill="rgb(0, 0, 0)" stroke="rgb(204, 204, 204)" stroke-width="1px"></line></g><g transform="translate(0, 8)"><text x="0" y="0" dx="0em" dy="0.95em" style="text-anchor: middle; visibility: hidden; font-family: Roboto, sans-serif; font-size: 12px; font-weight: 200;" fill="rgb(33, 33, 33)" stroke="none" stroke-width="1px">-5</text><text x="62.625" y="0" dx="0em" dy="0.95em" style="text-anchor: middle; visibility: inherit; font-family: Roboto, sans-serif; font-size: 12px; font-weight: 200;" fill="rgb(33, 33, 33)" stroke="none" stroke-width="1px">0</text><text x="125.25" y="0" dx="0em" dy="0.95em" style="text-anchor: middle; visibility: inherit; font-family: Roboto, sans-serif; font-size: 12px; font-weight: 200;" fill="rgb(33, 33, 33)" stroke="none" stroke-width="1px">5</text><text x="187.875" y="0" dx="0em" dy="0.95em" style="text-anchor: middle; visibility: inherit; font-family: Roboto, sans-serif; font-size: 12px; font-weight: 200;" fill="rgb(33, 33, 33)" stroke="none" stroke-width="1px">10</text><text x="250.5" y="0" dx="0em" dy="0.95em" style="text-anchor: middle; visibility: inherit; font-family: Roboto, sans-serif; font-size: 12px; font-weight: 200;" fill="rgb(33, 33, 33)" stroke="none" stroke-width="1px">15</text><text x="313.125" y="0" dx="0em" dy="0.95em" style="text-anchor: middle; visibility: inherit; font-family: Roboto, sans-serif; font-size: 12px; font-weight: 200;" fill="rgb(33, 33, 33)" stroke="none" stroke-width="1px">20</text><text x="375.75" y="0" dx="0em" dy="0.95em" style="text-anchor: middle; visibility: inherit; font-family: Roboto, sans-serif; font-size: 12px; font-weight: 200;" fill="rgb(33, 33, 33)" stroke="none" stroke-width="1px">25</text><text x="438.375" y="0" dx="0em" dy="0.95em" style="text-anchor: middle; visibility: inherit; font-family: Roboto, sans-serif; font-size: 12px; font-weight: 200;" fill="rgb(33, 33, 33)" stroke="none" stroke-width="1px">30</text><text x="501" y="0" dx="0em" dy="0.95em" style="text-anchor: middle; visibility: hidden; font-family: Roboto, sans-serif; font-size: 12px; font-weight: 200;" fill="rgb(33, 33, 33)" stroke="none" stroke-width="1px">35</text></g><line x1="0" y1="0" x2="501" y2="0" fill="rgb(0, 0, 0)" stroke="rgb(204, 204, 204)" stroke-width="1px"></line></g></g></g></g></svg>